<svg xmlns="http://www.w3.org/2000/svg" width="24" height="24" viewBox="0 0 24 24" fill="currentColor">
  <path d="M12 18.1C8.92425 18.1 5.6859 16.1814 3.05504 12C5.6859 7.81864 8.92425 5.90001 12 5.90001C15.0757 5.90001 18.314 7.81863 20.9449 12C18.314 16.1814 15.0757 18.1 12 18.1ZM22.7733 11.5397C19.897 6.70743 16.0358 4.1 12 4.10001C7.9642 4.10001 4.10294 6.70744 1.22661 11.5397C1.05776 11.8233 1.05776 12.1767 1.22661 12.4603C4.10294 17.2926 7.9642 19.9 12 19.9C16.0358 19.9 19.897 17.2926 22.7733 12.4603C22.9422 12.1767 22.9422 11.8233 22.7733 11.5397ZM12 15C13.6568 15 15 13.6569 15 12C15 10.3432 13.6568 9.00001 12 9.00001C10.3431 9.00001 8.99998 10.3432 8.99998 12C8.99998 13.6569 10.3431 15 12 15Z" />
</svg>